<svg width="59" height="45" viewBox="0 0 59 45" fill="none" xmlns="http://www.w3.org/2000/svg">
<path d="M13.4098 17.9459C12.7539 17.9459 12.1245 18.0481 11.498 18.1413C11.7009 17.4439 11.9098 16.7345 12.2451 16.0972C12.5804 15.1713 13.1039 14.3687 13.6245 13.5601C14.0598 12.6854 14.8275 12.0932 15.3922 11.3447C15.9834 10.6172 16.7893 10.1333 17.4275 9.52906C18.054 8.89779 18.8746 8.58216 19.5276 8.13727C20.21 7.73747 20.8041 7.29559 21.4394 7.08517L23.0247 6.41783L24.4189 5.82565L22.9924 0L21.2365 0.432864C20.6747 0.577153 19.9894 0.74549 19.2099 0.946893C18.4129 1.09719 17.5628 1.50902 16.6158 1.88477C15.6804 2.31162 14.5981 2.6002 13.5922 3.28557C12.5804 3.94088 11.4127 4.48798 10.3833 5.36573C9.38618 6.27054 8.18321 7.05511 7.29496 8.20641C6.32435 9.28257 5.3655 10.4128 4.62137 11.6994C3.75958 12.9259 3.17427 14.2725 2.55661 15.6042C1.99777 16.9359 1.54776 18.2976 1.18011 19.6202C0.483033 22.2715 0.171261 24.7906 0.0506696 26.9459C-0.0493328 29.1042 0.00949213 30.8988 0.133024 32.1974C0.560934 38.1451 4.69961 43.2537 10.3351 44.6297C12.7658 45.2232 15.3112 45.1013 17.6768 44.2781C20.0425 43.4548 22.1318 41.9639 23.703 39.9778C25.2742 37.9917 26.2632 35.5915 26.5555 33.055C26.8477 30.5185 26.4314 27.9492 25.3546 25.6444C24.2778 23.3395 22.5845 21.3934 20.4707 20.031C18.3569 18.6686 15.9089 17.9457 13.4098 17.9459ZM45.7635 17.9459C45.1076 17.9459 44.4782 18.0481 43.8517 18.1413C44.0546 17.4439 44.2635 16.7345 44.5988 16.0972C44.9341 15.1713 45.4576 14.3687 45.9782 13.5601C46.4135 12.6854 47.1812 12.0932 47.7459 11.3447C48.3371 10.6172 49.143 10.1333 49.7812 9.52906C50.4077 8.89779 51.2283 8.58216 51.8813 8.13727C52.5637 7.73747 53.1578 7.29559 53.7931 7.08517L55.3784 6.41783L56.7726 5.82565L55.3461 0L53.5902 0.432864C53.0284 0.577153 52.3431 0.74549 51.5636 0.946893C50.7666 1.09719 49.9165 1.50902 48.9695 1.88477C48.0371 2.31463 46.9518 2.6002 45.9459 3.28858C44.9341 3.94389 43.7664 4.49098 42.737 5.36874C41.7399 6.27355 40.5369 7.05812 39.6487 8.20641C38.678 9.28257 37.7192 10.4128 36.9751 11.6994C36.1133 12.9259 35.528 14.2725 34.9103 15.6042C34.3515 16.9359 33.9015 18.2976 33.5338 19.6202C32.8367 22.2715 32.525 24.7906 32.4044 26.9459C32.3044 29.1042 32.3632 30.8988 32.4867 32.1974C32.914 38.1366 36.999 43.2405 42.6888 44.6297C45.1195 45.2232 47.6649 45.1013 50.0305 44.2781C52.3962 43.4548 54.4855 41.9639 56.0567 39.9778C57.6279 37.9917 58.6169 35.5915 58.9092 33.055C59.2014 30.5185 58.7851 27.9492 57.7083 25.6444C56.6315 23.3395 54.9382 21.3934 52.8244 20.031C50.7106 18.6686 48.2626 17.9457 45.7635 17.9459Z" fill="#EBF2FB"/>
</svg>