<svg width="16" height="16" viewBox="0 0 16 16" fill="none" xmlns="http://www.w3.org/2000/svg">
<path fill-rule="evenodd" clip-rule="evenodd" d="M7.99683 0C5.8254 0 5.55238 0.00912878 4.69841 0.045644C3.84762 0.0821591 3.26667 0.213005 2.75873 0.401667C2.23175 0.596415 1.7873 0.86115 1.34286 1.28716C0.898413 1.71317 0.625397 2.14222 0.419048 2.64431C0.222222 3.13118 0.0857143 3.68803 0.047619 4.50658C0.0095238 5.32209 0 5.58378 0 8.33181C0 10.4132 0.0095238 10.6749 0.047619 11.4934C0.0857143 12.3089 0.222222 12.8658 0.419048 13.3557C0.622222 13.8608 0.898413 14.2868 1.34286 14.7128C1.7873 15.1389 2.23492 15.4005 2.75873 15.5983C3.26667 15.787 3.84762 15.9178 4.70159 15.9544C5.55556 15.9909 5.8254 16 8 16C10.1746 16 10.4444 15.9909 11.2984 15.9544C12.1492 15.9178 12.7302 15.787 13.2413 15.5983C13.7683 15.4036 14.2127 15.1389 14.6571 14.7128C15.1016 14.2868 15.3746 13.8578 15.581 13.3557C15.7778 12.8688 15.9143 12.312 15.9524 11.4934C15.9905 10.6749 16 10.4162 16 8.33181C16 5.58074 15.9905 5.32209 15.9524 4.50354C15.9143 3.68803 15.7778 3.13118 15.581 2.64126C15.3778 2.13614 15.1016 1.71013 14.6571 1.28412C14.2127 0.858107 13.7651 0.596415 13.2413 0.398624C12.7333 0.209962 12.1524 0.0791162 11.2984 0.042601C10.4413 0.00912878 10.1683 0 7.99683 0ZM8 4C5.79289 4 4 5.7898 4 8C4 10.2102 5.7898 12 8 12C10.2102 12 12 10.2102 12 8C12 5.7898 10.2102 4 8 4ZM8 10.5935C6.56569 10.5935 5.4034 9.43122 5.4034 7.99691C5.4034 6.5626 6.56569 5.40031 8 5.40031C9.43431 5.40031 10.5966 6.5626 10.5966 7.99691C10.5966 9.43122 9.43431 10.5935 8 10.5935ZM14 3C14 3.55228 13.5523 4 13 4C12.4477 4 12 3.55228 12 3C12 2.44772 12.4477 2 13 2C13.5523 2 14 2.44772 14 3Z" fill="white"/>
</svg>