<svg width="38" height="37" viewBox="0 0 38 37" fill="none" xmlns="http://www.w3.org/2000/svg">
<path d="M6.20404 36.9185L15.355 18.3062L29.0816 18.3062L14.2785 36.9185L6.20404 36.9185Z" fill="#FFC738"/>
<path d="M6.20405 0.081665L15.355 18.3062L29.0816 18.3062L14.2785 0.0816647L6.20405 0.081665Z" fill="white"/>
<path d="M25.8369 18.3062L23.2653 13.2653L31.3578 13.2653C34.4519 13.2653 37.1674 15.3261 38 18.3062L25.8369 18.3062Z" fill="white"/>
<path d="M2.52037 18.3062L-3.83673e-05 13.2653L7.56119 13.2653L10.0816 18.3062L2.52037 18.3062Z" fill="#FFC738"/>
<path d="M25.8369 18.3062L23.2653 23.347L31.3577 23.347C34.4519 23.347 37.1674 21.2862 38 18.3062L25.8369 18.3062Z" fill="#FFC738"/>
<path d="M2.52037 18.3062L-3.79266e-05 23.347L7.56119 23.347L10.0816 18.3062L2.52037 18.3062Z" fill="white"/>
</svg>