<?xml version="1.0" encoding="utf-8"?>
<!-- Generator: Adobe Illustrator 16.0.0, SVG Export Plug-In . SVG Version: 6.00 Build 0)  -->
<!DOCTYPE svg PUBLIC "-//W3C//DTD SVG 1.1//EN" "http://www.w3.org/Graphics/SVG/1.1/DTD/svg11.dtd">
<svg version="1.1" id="Layer_1" xmlns="http://www.w3.org/2000/svg" xmlns:xlink="http://www.w3.org/1999/xlink" x="0px" y="0px"
	 width="5000px" height="5000px" viewBox="0 0 5000 5000" enable-background="new 0 0 5000 5000" xml:space="preserve">
<g>
	<g>
		<circle fill="#4DADFB" cx="2433.333" cy="1686.667" r="278.222"/>
		<path fill="#4DADFB" d="M2664.444,2447.556v915.556c0,128-103.111,231.111-231.111,231.111s-231.111-103.111-231.111-231.111
			v-915.556c0-128,103.111-231.111,231.111-231.111S2664.444,2320.444,2664.444,2447.556z"/>
		<path fill="#4DADFB" d="M2433.333,500c-1104.889,0-2000,895.111-2000,2000s895.111,2000,2000,2000s2000-895.111,2000-2000
			S3538.222,500,2433.333,500z M3596,3662.667c-636.444,648-1678.223,656.889-2325.334,19.556
			c-647.11-637.334-656.889-1677.334-19.556-2325.334c6.223-7.111,13.334-13.333,19.557-19.555
			c636.443-648,1678.222-656.89,2325.333-19.557c647.11,637.334,656.889,1678.223,19.556,2325.334
			C3609.333,3649.334,3603.111,3656.444,3596,3662.667z"/>
		<path fill="#4DADFB" d="M2433.333,500c-1104.889,0-2000,895.111-2000,2000s895.111,2000,2000,2000s2000-895.111,2000-2000
			S3538.222,500,2433.333,500z M3596,3662.667c-636.444,648-1678.223,656.889-2325.334,19.556
			c-647.11-637.334-656.889-1677.334-19.556-2325.334c6.223-7.111,13.334-13.333,19.557-19.555
			c636.443-648,1678.222-656.89,2325.333-19.557c647.11,637.334,656.889,1678.223,19.556,2325.334
			C3609.333,3649.334,3603.111,3656.444,3596,3662.667z"/>
	</g>
</g>
</svg>
