<svg width="20" height="14" viewBox="0 0 20 14" fill="none" xmlns="http://www.w3.org/2000/svg">
<path fill-rule="evenodd" clip-rule="evenodd" d="M18.9438 1.04993C19.2534 1.36792 19.4733 1.76172 19.5813 2.19147C19.8697 3.78406 20.0097 5.39984 19.9995 7.01813C20.0052 8.61218 19.8653 10.2035 19.5813 11.7723C19.4733 12.2021 19.2534 12.5959 18.9438 12.9139C18.6341 13.2319 18.2457 13.4628 17.8178 13.5834C16.2542 14 10 14 10 14C10 14 3.74578 14 2.18222 13.5834C1.76299 13.4692 1.38043 13.2491 1.0715 12.9445C0.762577 12.64 0.537727 12.2612 0.41868 11.8448C0.130302 10.2521 -0.00968046 8.63641 0.00051965 7.01813C-0.00744727 5.41193 0.132526 3.80841 0.41868 2.22766C0.526664 1.79791 0.746586 1.40411 1.05623 1.08612C1.36588 0.768127 1.75429 0.53717 2.18222 0.416565C3.74578 0 10 0 10 0C10 0 16.2542 0 17.8178 0.38031C18.2457 0.500916 18.6341 0.731934 18.9438 1.04993ZM9.5547 9.96356C8.89015 10.4066 8 9.93018 8 9.13147V4.86853C8 4.06982 8.89014 3.59344 9.5547 4.03644L12.7519 6.16797C13.3457 6.56378 13.3457 7.43622 12.7519 7.83203L9.5547 9.96356Z" fill="white"/>
</svg>